<?xml version="1.0" encoding="UTF-8" standalone="no"?>
<!DOCTYPE svg PUBLIC "-//W3C//DTD SVG 1.1//EN" "http://www.w3.org/Graphics/SVG/1.1/DTD/svg11.dtd">
<svg width="100%" height="100%" viewBox="0 0 1280 1280" version="1.1" xmlns="http://www.w3.org/2000/svg" xmlns:xlink="http://www.w3.org/1999/xlink" xml:space="preserve" xmlns:serif="http://www.serif.com/" style="fill-rule:evenodd;clip-rule:evenodd;stroke-linejoin:round;stroke-miterlimit:2;">
    <rect id="Artboard1" x="0" y="0" width="1280" height="1280" style="fill:none;"/>
    <g id="Artboard11" serif:id="Artboard1">
        <g id="Calendar">
            <g transform="matrix(1.11494,0,0,1.04598,-30.5698,-52.3013)">
                <g id="Calendar-Box" serif:id="Calendar Box">
                    <path d="M1064.99,461.583L1064.99,862.158C1064.99,1009.75 952.578,1129.58 814.116,1129.58L388.762,1129.58C250.3,1129.58 137.886,1009.75 137.886,862.158L137.886,461.583C137.886,313.991 250.3,194.166 388.762,194.166L814.116,194.166C952.578,194.166 1064.99,313.991 1064.99,461.583Z" style="fill:white;"/>
                </g>
            </g>
            <g id="Calendar-Box1" serif:id="Calendar Box">
                <g transform="matrix(1.11494,0,0,1.04598,-30.5698,-52.3013)">
                    <path d="M1039.39,461.583L1039.39,862.158C1039.39,994.686 938.445,1102.28 814.116,1102.28L388.762,1102.28C264.432,1102.28 163.492,994.686 163.492,862.158L163.492,461.583C163.492,329.055 264.432,221.46 388.762,221.46L814.116,221.46C938.445,221.46 1039.39,329.055 1039.39,461.583ZM1002.01,461.583C1002.01,351.041 917.82,261.295 814.116,261.295L388.762,261.295C285.058,261.295 200.863,351.041 200.863,461.583L200.863,862.158C200.863,972.7 285.058,1062.45 388.762,1062.45L814.116,1062.45C917.82,1062.45 1002.01,972.7 1002.01,862.158L1002.01,461.583Z"/>
                </g>
                <g transform="matrix(1.1155,0,0,1.04598,-30.9072,-52.3013)">
                    <path d="M163.993,445.783C171.651,320.621 269.42,221.46 388.762,221.46L814.116,221.46C933.458,221.46 1031.23,320.621 1038.88,445.783C1039.56,456.775 1035.93,467.574 1028.87,475.612C1021.81,483.651 1011.94,488.212 1001.61,488.212L201.266,488.212C190.937,488.212 181.069,483.651 174.008,475.612C166.946,467.574 163.32,456.775 163.993,445.783ZM201.266,448.377L1001.61,448.377C995.224,343.981 913.657,261.295 814.116,261.295L388.762,261.295C289.22,261.295 207.654,343.981 201.266,448.377Z"/>
                </g>
            </g>
            <g id="Dates" transform="matrix(0.176269,0,0,0.267087,64.2457,364.104)">
                <path d="M2061.9,493.813L2061.9,985.324L1317.15,985.324L1317.15,493.813L2061.9,493.813ZM3117.3,493.813L3117.3,985.324L2372.55,985.324L2372.55,493.813L3117.3,493.813ZM4161.07,493.813L4161.07,985.324L3416.33,985.324L3416.33,493.813L4161.07,493.813ZM5215.51,493.813L5215.51,985.324L4470.76,985.324L4470.76,493.813L5215.51,493.813ZM2061.9,1184.79L2061.9,1676.3L1317.15,1676.3L1317.15,1184.79L2061.9,1184.79ZM3117.3,1184.79L3117.3,1676.3L2372.55,1676.3L2372.55,1184.79L3117.3,1184.79ZM4161.07,1184.79L4161.07,1676.3L3416.33,1676.3L3416.33,1184.79L4161.07,1184.79ZM5215.51,1184.79L5215.51,1676.3L4470.76,1676.3L4470.76,1184.79L5215.51,1184.79ZM2061.9,1886.34L2061.9,2377.86L1317.15,2377.86L1317.15,1886.34L2061.9,1886.34ZM3117.3,1886.34L3117.3,2377.86L2372.55,2377.86L2372.55,1886.34L3117.3,1886.34ZM4161.07,1886.34L4161.07,2377.86L3416.33,2377.86L3416.33,1886.34L4161.07,1886.34ZM5215.51,1886.34L5215.51,2377.86L4470.76,2377.86L4470.76,1886.34L5215.51,1886.34Z"/>
            </g>
        </g>
        <g id="Dollar" transform="matrix(1.23605,0,0,1.23217,249.848,94.8764)">
            <path d="M275.135,862.158L257.961,862.158C162.166,862.158 109.633,810.655 109.633,713.829L109.633,605.673C109.633,594.342 115.813,589.192 126.114,589.192L233.24,589.192C244.571,589.192 249.721,594.342 249.721,605.673L249.721,684.988C249.721,712.799 265.172,726.19 290.923,726.19L340.366,726.19C367.148,726.19 381.569,712.799 381.569,684.988L381.569,547.99L137.444,467.645C118.903,461.464 109.633,449.104 109.633,429.533L109.633,186.438C109.633,89.612 162.166,38.109 257.961,38.109L275.135,38.109L275.135,-23.942C275.135,-34.898 284.002,-43.793 294.924,-43.793L334.503,-43.793C345.425,-43.793 354.292,-34.898 354.292,-23.942L354.292,38.109L373.328,38.109C470.154,38.109 521.657,89.612 521.657,186.438L521.657,295.625C521.657,305.925 516.507,312.106 505.176,312.106L398.05,312.106C387.749,312.106 381.569,305.925 381.569,295.625L381.569,215.28C381.569,188.498 368.178,174.077 340.366,174.077L290.923,174.077C265.172,174.077 249.721,188.498 249.721,215.28L249.721,357.428L494.875,437.773C512.387,444.983 521.657,456.314 521.657,475.885L521.657,713.829C521.657,810.655 470.154,862.158 373.328,862.158L354.292,862.158L354.292,924.209C354.292,935.166 345.425,944.061 334.503,944.061L294.924,944.061C284.002,944.061 275.135,935.166 275.135,924.209L275.135,862.158Z" style="fill:white;"/>
        </g>
        <g id="Dollar1" serif:id="Dollar" transform="matrix(1.23605,0,0,1.23217,249.848,94.8764)">
            <path d="M132.914,612.547L226.439,612.547L226.439,684.988C226.439,706.618 233.521,722.246 244.537,732.861C255.472,743.399 271.041,749.545 290.923,749.545L340.366,749.545C361.041,749.545 376.557,743.248 387.292,732.712C398.08,722.124 404.85,706.562 404.85,684.988L404.85,547.99C404.85,537.896 398.387,528.945 388.826,525.799L144.757,445.472C136.962,442.864 132.914,437.77 132.914,429.533L132.914,186.438C132.914,145.446 143.008,113.697 164.268,92.547C185.559,71.365 217.345,61.464 257.961,61.464L275.135,61.464C287.993,61.464 298.417,51.008 298.417,38.109L298.417,-20.438L331.011,-20.438L331.011,38.109C331.011,51.008 341.434,61.464 354.292,61.464L373.328,61.464C414.383,61.464 446.183,71.322 467.366,92.504C488.524,113.663 498.376,145.43 498.376,186.438L498.376,288.751L404.85,288.751L404.85,215.28C404.85,194.559 398.547,179.009 387.987,168.25C377.423,157.487 361.893,150.723 340.366,150.723L290.923,150.723C270.985,150.723 255.347,157.178 244.381,167.945C233.364,178.761 226.439,194.448 226.439,215.28L226.439,357.428C226.439,367.532 232.917,376.49 242.491,379.628L486.736,459.675C494.062,462.86 498.376,467.492 498.376,475.885L498.376,713.829C498.376,754.837 488.524,786.605 467.366,807.763C446.183,828.946 414.383,838.804 373.328,838.804L354.292,838.804C341.434,838.804 331.011,849.26 331.011,862.158L331.011,920.706L298.417,920.706L298.417,862.158C298.417,849.26 287.993,838.804 275.135,838.804L257.961,838.804C217.345,838.804 185.559,828.903 164.268,807.721C143.008,786.571 132.914,754.822 132.914,713.829L132.914,612.547Z"/>
        </g>
    </g>
</svg>
